<?xml version="1.0" encoding="UTF-8"?>
<svg xmlns="http://www.w3.org/2000/svg" viewBox="0 0 1024 1024">
  <defs>
    <style>
      .cls-1 {
        fill: #fff;
      }

      .cls-2 {
        fill: #22a3fb;
      }

      .cls-3 {
        fill: #223247;
      }
    </style>
  </defs>
  <g id="Layer_2" data-name="Layer 2">
    <rect class="cls-1" width="1024" height="1024" rx="173.61" ry="173.61"/>
  </g>
  <g id="Layer_3" data-name="Layer 3">
    <path class="cls-2" d="M103.15,458.21s15.32,1.02,26.55,5.62c11.23,4.6,22.47,15.32,22.47,15.32,0,0,38.81-123.74,164.43-232,125.62-108.26,280.85-124.6,280.85-124.6v-30.04s-163.91,7.83-310.3,122.89c-146.38,115.06-184,242.81-184,242.81Z"/>
    <path class="cls-2" d="M788.26,122.47l-10.21,23.49s93.45,31.66,146.04,118.47c52.6,86.81,49.53,208.34,49.53,208.34,0,0,17.36-132.77-38.81-221.11-56.17-88.34-146.55-129.19-146.55-129.19Z"/>
    <path class="cls-2" d="M68.26,648.43s16,2.72,28.94,1.36c12.94-1.36,28.26-5.45,28.26-5.45,0,0,.34,81.87,53.45,156.77,53.11,74.89,106.89,93.28,140.94,109.62,34.04,16.34,70.81,19.74,70.81,19.74,0,0-.68,13.07,0,23.84s3.5,19.61,3.5,19.61c0,0-107-13.34-167.25-47.55-60.26-34.21-106.72-85.28-135.83-161.87-29.11-76.6-22.8-116.07-22.8-116.07Z"/>
    <path class="cls-2" d="M576.67,919.05v32.34s94.64-27.74,158.47-74.21c63.83-46.47,126.13-123.57,126.13-123.57,0,0-78.13,77.62-155.23,113.87-77.11,36.26-129.36,51.57-129.36,51.57Z"/>
    <circle class="cls-2" cx="91.74" cy="554.11" r="62.3"/>
    <circle class="cls-2" cx="693.61" cy="102.02" r="62.3"/>
    <circle class="cls-2" cx="485.41" cy="942.19" r="62.3"/>
    <path class="cls-2" d="M228.08,688.24l77.96-50.72s20.97,47.66,88.1,47.66,91.64-49.53,91.64-102.64v-228.26s-3.06-57.19,32.17-82.21c35.23-25.02,63.83-20.43,63.83-20.43v350.81s-7.15,93.45-72,137.87c-64.85,44.43-129.7,38.3-129.7,38.3,0,0-98.21,2.55-152-90.38Z"/>
    <path class="cls-3" d="M621.27,349.68v77.96s156.77-4.94,156.77,132.94-134.04,134.13-180.6,134.81c0,0-11.41,25.53-26.22,40.85-14.81,15.32-38.3,37.28-38.3,37.28h110.81s104.68,1.53,159.83-64.85c55.15-66.38,69.96-123.57,54.64-200.17-15.32-76.6-88.34-124.09-107.23-133.28-18.89-9.19-65.36-28.6-129.7-25.53Z"/>
  </g>
</svg>
